# xmcd
#
# Track frame offsets: 
#        150
#        12831
#        30731
#        49429
#        63615
#        87450
#        103724
#        119840
#        138366
#
# Disc length: 2238 seconds
#
# Revision: 0
# Processed by: cddbd v1.5.1PL0 Copyright (c) Steve Scherf et al.
# Submitted via: ExactAudioCopy v0.95a5
#
DISCID=8308bc09
DTITLE=John Kay - My Sportin' Life
DYEAR=1973
DGENRE=Rock
TTITLE0=Moonshine (Friend Of Mine)
TTITLE1=Nobody Lives Here Anymore
TTITLE2=Drift Away
TTITLE3=Heroes And Devils
TTITLE4=My Sportin' Life
TTITLE5=Easy Evil
TTITLE6=Giles Of The River
TTITLE7=Dance To My Song
TTITLE8=Sing With The Children
EXTD=
EXTT0=
EXTT1=
EXTT2=
EXTT3=
EXTT4=
EXTT5=
EXTT6=
EXTT7=
EXTT8=
PLAYORDER=
